<?xml version="1.0" encoding="UTF-8" standalone="no"?>
<!-- Created with Inkscape (http://www.inkscape.org/) -->

<svg
   xmlns:dc="http://purl.org/dc/elements/1.1/"
   xmlns:cc="http://creativecommons.org/ns#"
   xmlns:rdf="http://www.w3.org/1999/02/22-rdf-syntax-ns#"
   xmlns:svg="http://www.w3.org/2000/svg"
   xmlns="http://www.w3.org/2000/svg"
   xmlns:sodipodi="http://sodipodi.sourceforge.net/DTD/sodipodi-0.dtd"
   xmlns:inkscape="http://www.inkscape.org/namespaces/inkscape"
   id="svg2"
   version="1.1"
   inkscape:version="0.48.5 r10040"
   width="3508"
   height="2480"
   sodipodi:docname="Intevation_Logo_IntelMQ.svg">
  <metadata
     id="metadata8">
    <rdf:RDF>
      <cc:Work
         rdf:about="">
        <dc:format>image/svg+xml</dc:format>
        <dc:type
           rdf:resource="http://purl.org/dc/dcmitype/StillImage" />
        <dc:title />
      </cc:Work>
    </rdf:RDF>
  </metadata>
  <defs
     id="defs6" />
  <sodipodi:namedview
     pagecolor="#ffffff"
     bordercolor="#666666"
     borderopacity="1"
     objecttolerance="10"
     gridtolerance="10"
     guidetolerance="10"
     inkscape:pageopacity="0"
     inkscape:pageshadow="2"
     inkscape:window-width="1680"
     inkscape:window-height="1003"
     id="namedview4"
     showgrid="false"
     inkscape:zoom="0.33916314"
     inkscape:cx="1635.8518"
     inkscape:cy="1266.2042"
     inkscape:window-x="-2"
     inkscape:window-y="24"
     inkscape:window-maximized="1"
     inkscape:current-layer="layer4"
     showguides="true"
     inkscape:guide-bbox="true" />
  <g
     inkscape:groupmode="layer"
     id="layer5"
     inkscape:label="Pallet"
     style="display:none"
     sodipodi:insensitive="true">
    <rect
       style="color:#000000;fill:#00759e;fill-opacity:1;fill-rule:nonzero;stroke:none;stroke-width:8;marker:none;visibility:visible;display:inline;overflow:visible;enable-background:accumulate"
       id="rect4228"
       width="178.88235"
       height="180.86993"
       x="1321.245"
       y="2575.4038" />
    <rect
       style="color:#000000;fill:#013e56;fill-opacity:1;fill-rule:nonzero;stroke:none;stroke-width:8;marker:none;visibility:visible;display:inline;overflow:visible;enable-background:accumulate"
       id="rect4230"
       width="178.8824"
       height="180.86993"
       x="1526.4629"
       y="2575.4038" />
    <rect
       style="color:#000000;fill:#ef3543;fill-opacity:1;fill-rule:nonzero;stroke:none;stroke-width:8;marker:none;visibility:visible;display:inline;overflow:visible;enable-background:accumulate"
       id="rect4232"
       width="178.8824"
       height="180.86993"
       x="1731.6809"
       y="2575.4038" />
    <rect
       style="color:#000000;fill:#3ba2db;fill-opacity:1;fill-rule:nonzero;stroke:none;stroke-width:8;marker:none;visibility:visible;display:inline;overflow:visible;enable-background:accumulate"
       id="rect4236"
       width="178.8824"
       height="180.86993"
       x="1936.8989"
       y="2575.4038" />
  </g>
  <g
     inkscape:groupmode="layer"
     id="layer1"
     inkscape:label="Text"
     style="display:inline"
     sodipodi:insensitive="true">
    <rect
       style="color:#000000;fill:#00759e;fill-opacity:1;fill-rule:nonzero;stroke:none;stroke-width:8;marker:none;visibility:visible;display:inline;overflow:visible;enable-background:accumulate"
       id="rect3062"
       width="33.475052"
       height="196.9556"
       x="813.73102"
       y="2074.9131" />
    <path
       style="color:#000000;fill:#00759e;fill-opacity:1;fill-rule:nonzero;stroke:none;stroke-width:8;marker:none;visibility:visible;display:inline;overflow:visible;enable-background:accumulate"
       d="m 997.90625,2074.875 0,195.9688 33.09375,0 0,-138.4688 97.5625,138.7188 0.2187,-2.3126 0,2.0626 32.4412,0 0,-195.9688 -32.4412,0 0,138.7812 -96.9075,-138.7187 z"
       id="rect3062-3"
       inkscape:connector-curvature="0"
       sodipodi:nodetypes="ccccccccccccc" />
    <path
       style="color:#000000;fill:#00759e;fill-opacity:1;fill-rule:nonzero;stroke:none;stroke-width:8;marker:none;visibility:visible;display:inline;overflow:visible;enable-background:accumulate"
       d="m 1313.4062,2074.6875 0,33.4687 48.6563,0 0,163.7188 33.4687,0 0,-163.7188 48.6563,0 0,-33.4687 -130.7813,0 z"
       id="rect3062-5"
       inkscape:connector-curvature="0" />
    <path
       style="color:#000000;fill:#00759e;fill-opacity:1;fill-rule:nonzero;stroke:none;stroke-width:8;marker:none;visibility:visible;display:inline;overflow:visible;enable-background:accumulate"
       d="m 1876.1562,2075.0312 0,163.0938 0,29.6875 0,3.0937 105.2813,0 0,-32.7812 -72.4375,0 0,-163.0938 -32.8438,0 z"
       id="rect3062-56-2"
       inkscape:connector-curvature="0" />
    <path
       style="color:#000000;fill:#013e56;fill-opacity:1;fill-rule:nonzero;stroke:none;stroke-width:8;marker:none;visibility:visible;display:inline;overflow:visible;enable-background:accumulate"
       d="m 2129.9375,2074.9062 0,196.4688 42.1638,0 0,-96.9688 47.4612,96.9063 36.2317,0 44.2259,-95.3125 0,95.375 41.9799,0 0,-196.4688 -41.0662,0 -63.2463,136.7813 -66.9091,-136.7813 z"
       id="rect3062-56-2-9"
       inkscape:connector-curvature="0"
       sodipodi:nodetypes="cccccccccccccc" />
    <path
       style="color:#000000;fill:#00759e;fill-opacity:1;fill-rule:nonzero;stroke:none;stroke-width:8;marker:none;visibility:visible;display:inline;overflow:visible;enable-background:accumulate"
       d="m 1679.1345,2157.1333 16.6673,15.8301 -16.6673,15.8301 -85.1983,0 0,-31.6602 z"
       id="rect3062-56-27-0-9"
       inkscape:connector-curvature="0"
       sodipodi:nodetypes="cccccc" />
    <rect
       style="color:#000000;fill:#00759e;fill-opacity:1;fill-rule:nonzero;stroke:none;stroke-width:8;marker:none;visibility:visible;display:inline;overflow:visible;enable-background:accumulate"
       id="rect3062-56-27-0-9-3"
       width="32.248547"
       height="130.25768"
       x="2239.0261"
       y="-1724.9783"
       transform="matrix(0,1,-1,0,0,0)" />
    <rect
       style="color:#000000;fill:#00759e;fill-opacity:1;fill-rule:nonzero;stroke:none;stroke-width:8;marker:none;visibility:visible;display:inline;overflow:visible;enable-background:accumulate"
       id="rect3062-56-27-0-9-3-6"
       width="32.248547"
       height="130.25768"
       x="2075.9316"
       y="-1724.9783"
       transform="matrix(0,1,-1,0,0,0)" />
    <path
       sodipodi:type="arc"
       style="color:#000000;fill:#013e56;fill-opacity:1;fill-rule:nonzero;stroke:none;stroke-width:8;marker:none;visibility:visible;display:inline;overflow:visible;enable-background:accumulate"
       id="path4194"
       sodipodi:cx="2609.3103"
       sodipodi:cy="2187.1057"
       sodipodi:rx="84.343803"
       sodipodi:ry="84.343803"
       d="m 2693.6541,2187.1057 a 84.343803,84.343803 0 1 1 -168.6876,0 84.343803,84.343803 0 1 1 168.6876,0 z"
       transform="matrix(1.1412103,0,0,1.1412103,-386.9344,-320.02275)" />
    <path
       sodipodi:type="arc"
       style="color:#000000;fill:#ffffff;fill-opacity:1;fill-rule:nonzero;stroke:none;stroke-width:8;marker:none;visibility:visible;display:inline;overflow:visible;enable-background:accumulate"
       id="path4196"
       sodipodi:cx="2588.4067"
       sodipodi:cy="2180.7861"
       sodipodi:rx="55.175915"
       sodipodi:ry="55.175915"
       d="m 2643.5827,2180.7861 a 55.175915,55.175915 0 1 1 -110.3519,0 55.175915,55.175915 0 1 1 110.3519,0 z"
       transform="translate(2.4306571,-4.8613142)" />
    <rect
       style="color:#000000;fill:#013e56;fill-opacity:1;fill-rule:nonzero;stroke:none;stroke-width:8;marker:none;visibility:visible;display:inline;overflow:visible;enable-background:accumulate"
       id="rect3062-56-27-0-9-3-2"
       width="40.69812"
       height="96.445793"
       x="-314.47705"
       y="-3492.1143"
       transform="matrix(-0.70710678,0.70710678,-0.70710678,-0.70710678,0,0)" />
  </g>
  <g
     inkscape:groupmode="layer"
     id="layer3"
     inkscape:label="Lines"
     style="display:inline"
     sodipodi:insensitive="true">
    <rect
       style="color:#000000;fill:none;stroke:#013e56;stroke-width:32;stroke-linecap:square;stroke-linejoin:round;stroke-miterlimit:4;stroke-opacity:1;stroke-dasharray:none;stroke-dashoffset:0;marker:none;visibility:visible;display:inline;overflow:visible;enable-background:accumulate"
       id="rect4876"
       width="428.96173"
       height="430.38184"
       x="1539.8441"
       y="932.11194"
       rx="174.84785"
       ry="174.84785" />
    <path
       style="fill:none;stroke:#00759e;stroke-width:32;stroke-linecap:butt;stroke-linejoin:miter;stroke-miterlimit:4;stroke-opacity:1;stroke-dasharray:none"
       d="m 1201.1529,1107.0755 c 0,-230.78734 179.031,-513.47728 516.7739,-513.47728"
       id="path4844"
       inkscape:connector-curvature="0"
       sodipodi:nodetypes="cc" />
    <path
       style="fill:none;stroke:#ef3543;stroke-width:32;stroke-linecap:butt;stroke-linejoin:round;stroke-miterlimit:4;stroke-opacity:1;stroke-dasharray:none"
       d="m 2307.2298,1748.3189 c 0,-84.635 -74.25,-167.1027 -167.4173,-170.5743 l -217.51,0 c -27.4347,0 -69.461,-11.9216 -104.6289,-40.8953 -35.1679,-28.9736 -63.4772,-74.3455 -63.4772,-139.2843 -0.3617,-83.3781 -0.1553,-166.7709 -0.1553,-250.1534"
       id="path4842"
       inkscape:connector-curvature="0"
       sodipodi:nodetypes="cccscc" />
    <path
       style="fill:none;stroke:#3ba2db;stroke-width:32;stroke-linecap:butt;stroke-linejoin:miter;stroke-miterlimit:4;stroke-opacity:1;stroke-dasharray:none;display:inline"
       d="m 869.03616,1146.9793 c 99.8419,0 214.87924,0 335.53504,0"
       id="path4492-7-4"
       inkscape:connector-curvature="0"
       sodipodi:nodetypes="cc" />
    <path
       style="fill:none;stroke:#00759e;stroke-width:32;stroke-linecap:butt;stroke-linejoin:miter;stroke-miterlimit:4;stroke-opacity:1;stroke-dasharray:none;display:inline"
       d="m 1201.216,1146.9793 c 99.8419,0 214.8793,0 335.5351,0"
       id="path4492-7"
       inkscape:connector-curvature="0"
       sodipodi:nodetypes="cc" />
    <path
       style="fill:none;stroke:#013e56;stroke-width:32;stroke-linecap:butt;stroke-linejoin:miter;stroke-miterlimit:4;stroke-opacity:1;stroke-dasharray:none;display:inline"
       d="m 1523.3297,1146.9793 c 144.5481,0 297.732,0 442.9065,0"
       id="path4492-5"
       inkscape:connector-curvature="0"
       sodipodi:nodetypes="cc" />
    <path
       style="fill:none;stroke:#00759e;stroke-width:32;stroke-linecap:butt;stroke-linejoin:miter;stroke-miterlimit:4;stroke-opacity:1;stroke-dasharray:none;display:inline"
       d="m 1964.5585,1150.2172 c 121.8291,0 238.0675,0 338.8905,0"
       id="path4492-2"
       inkscape:connector-curvature="0"
       sodipodi:nodetypes="cc" />
    <path
       style="fill:none;stroke:#3ba2db;stroke-width:32;stroke-linecap:butt;stroke-linejoin:miter;stroke-miterlimit:4;stroke-opacity:1;stroke-dasharray:none;display:inline"
       d="m 2300.0937,1150.2172 344.7111,0"
       id="path4492-54"
       inkscape:connector-curvature="0"
       sodipodi:nodetypes="cc" />
    <path
       style="fill:#ff0000;stroke:#013e56;stroke-width:32;stroke-linecap:butt;stroke-linejoin:miter;stroke-miterlimit:4;stroke-opacity:1;stroke-dasharray:none;display:inline"
       d="m 1754.0296,1141.7216 0,-215.47787"
       id="path4494-4"
       inkscape:connector-curvature="0"
       sodipodi:nodetypes="cc" />
    <path
       style="fill:#ff0000;stroke:#00759e;stroke-width:32;stroke-linecap:butt;stroke-linejoin:miter;stroke-miterlimit:4;stroke-opacity:1;stroke-dasharray:none;display:inline"
       d="m 1754.0296,916.09 0,-319.00822"
       id="path4494-3"
       inkscape:connector-curvature="0"
       sodipodi:nodetypes="cc" />
    <path
       style="fill:#ff0000;stroke:#3ba2db;stroke-width:32;stroke-linecap:butt;stroke-linejoin:miter;stroke-miterlimit:4;stroke-opacity:1;stroke-dasharray:none;display:inline"
       d="m 1754.0296,588.71325 0,-337.71115"
       id="path4494-9"
       inkscape:connector-curvature="0"
       sodipodi:nodetypes="cc" />
    <path
       style="fill:none;stroke:#00759e;stroke-width:32;stroke-linecap:butt;stroke-linejoin:miter;stroke-miterlimit:4;stroke-opacity:1;stroke-dasharray:none;display:inline"
       d="m 2306.1795,1107.0755 c 0,-230.78734 -179.031,-513.47728 -516.7739,-513.47728"
       id="path4844-3"
       inkscape:connector-curvature="0"
       sodipodi:nodetypes="cc" />
  </g>
  <g
     inkscape:groupmode="layer"
     id="layer4"
     inkscape:label="dots"
     style="display:inline"
     sodipodi:insensitive="true">
    <path
       sodipodi:type="arc"
       style="color:#000000;fill:#ef3543;fill-opacity:1;fill-rule:nonzero;stroke:none;stroke-width:8;marker:none;visibility:visible;display:inline;overflow:visible;enable-background:accumulate"
       id="path4348"
       sodipodi:cx="2315.9065"
       sodipodi:cy="1803.7494"
       sodipodi:rx="57.786533"
       sodipodi:ry="57.786533"
       d="m 2373.693,1803.7494 a 57.786533,57.786533 0 1 1 -115.573,0 57.786533,57.786533 0 1 1 115.573,0 z"
       transform="matrix(0.95940739,0,0,0.95940739,85.711126,62.460118)" />
    <path
       sodipodi:type="arc"
       style="color:#000000;fill:#ffffff;fill-opacity:1;fill-rule:nonzero;stroke:none;stroke-width:8;marker:none;visibility:visible;display:inline;overflow:visible;enable-background:accumulate"
       id="path4352"
       sodipodi:cx="2301.4099"
       sodipodi:cy="1785.1545"
       sodipodi:rx="17.997429"
       sodipodi:ry="17.997429"
       d="m 2319.4073,1785.1545 a 17.997429,17.997429 0 1 1 -35.9948,0 17.997429,17.997429 0 1 1 35.9948,0 z"
       transform="matrix(1.2964824,0,0,1.2964824,-676.3999,-521.34043)" />
    <path
       sodipodi:type="arc"
       style="color:#000000;fill:#ef3543;fill-opacity:1;fill-rule:nonzero;stroke:none;stroke-width:8;marker:none;visibility:visible;display:inline;overflow:visible;enable-background:accumulate"
       id="path4348-0"
       sodipodi:cx="2315.9065"
       sodipodi:cy="1803.7494"
       sodipodi:rx="57.786533"
       sodipodi:ry="57.786533"
       d="m 2373.693,1803.7494 a 57.786533,57.786533 0 1 1 -115.573,0 57.786533,57.786533 0 1 1 115.573,0 z"
       transform="matrix(0.95940739,0,0,0.95940739,-467.68324,-368.39161)" />
    <path
       sodipodi:type="arc"
       style="color:#000000;fill:#ffffff;fill-opacity:1;fill-rule:nonzero;stroke:none;stroke-width:8;marker:none;visibility:visible;display:inline;overflow:visible;enable-background:accumulate"
       id="path4352-2"
       sodipodi:cx="2301.4099"
       sodipodi:cy="1785.1545"
       sodipodi:rx="17.997429"
       sodipodi:ry="17.997429"
       d="m 2319.4073,1785.1545 a 17.997429,17.997429 0 1 1 -35.9948,0 17.997429,17.997429 0 1 1 35.9948,0 z"
       transform="matrix(1.2964824,0,0,1.2964824,-1229.7943,-952.19217)" />
    <path
       sodipodi:type="arc"
       style="color:#000000;fill:#013e56;fill-opacity:1;fill-rule:nonzero;stroke:none;stroke-width:8;marker:none;visibility:visible;display:inline;overflow:visible;enable-background:accumulate"
       id="path4348-7"
       sodipodi:cx="2315.9065"
       sodipodi:cy="1803.7494"
       sodipodi:rx="57.786533"
       sodipodi:ry="57.786533"
       d="m 2373.693,1803.7494 a 57.786533,57.786533 0 1 1 -115.573,0 57.786533,57.786533 0 1 1 115.573,0 z"
       transform="matrix(0.95940739,0,0,0.95940739,-467.68324,-583.55116)" />
    <path
       sodipodi:type="arc"
       style="color:#000000;fill:#ffffff;fill-opacity:1;fill-rule:nonzero;stroke:none;stroke-width:8;marker:none;visibility:visible;display:inline;overflow:visible;enable-background:accumulate"
       id="path4352-5"
       sodipodi:cx="2301.4099"
       sodipodi:cy="1785.1545"
       sodipodi:rx="17.997429"
       sodipodi:ry="17.997429"
       d="m 2319.4073,1785.1545 a 17.997429,17.997429 0 1 1 -35.9948,0 17.997429,17.997429 0 1 1 35.9948,0 z"
       transform="matrix(1.2964824,0,0,1.2964824,-1229.7943,-1167.3518)" />
    <path
       sodipodi:type="arc"
       style="color:#000000;fill:#013e56;fill-opacity:1;fill-rule:nonzero;stroke:none;stroke-width:8;marker:none;visibility:visible;display:inline;overflow:visible;enable-background:accumulate"
       id="path4348-2"
       sodipodi:cx="2315.9065"
       sodipodi:cy="1803.7494"
       sodipodi:rx="57.786533"
       sodipodi:ry="57.786533"
       d="m 2373.693,1803.7494 a 57.786533,57.786533 0 1 1 -115.573,0 57.786533,57.786533 0 1 1 115.573,0 z"
       transform="matrix(0.95940739,0,0,0.95940739,-467.68324,-798.29415)" />
    <path
       sodipodi:type="arc"
       style="color:#000000;fill:#ffffff;fill-opacity:1;fill-rule:nonzero;stroke:none;stroke-width:8;marker:none;visibility:visible;display:inline;overflow:visible;enable-background:accumulate"
       id="path4352-28"
       sodipodi:cx="2301.4099"
       sodipodi:cy="1785.1545"
       sodipodi:rx="17.997429"
       sodipodi:ry="17.997429"
       d="m 2319.4073,1785.1545 a 17.997429,17.997429 0 1 1 -35.9948,0 17.997429,17.997429 0 1 1 35.9948,0 z"
       transform="matrix(1.2964824,0,0,1.2964824,-1229.7943,-1382.0947)" />
    <path
       sodipodi:type="arc"
       style="color:#000000;fill:#013e56;fill-opacity:1;fill-rule:nonzero;stroke:none;stroke-width:8;marker:none;visibility:visible;display:inline;overflow:visible;enable-background:accumulate"
       id="path4348-3"
       sodipodi:cx="2315.9065"
       sodipodi:cy="1803.7494"
       sodipodi:rx="57.786533"
       sodipodi:ry="57.786533"
       d="m 2373.693,1803.7494 a 57.786533,57.786533 0 1 1 -115.573,0 57.786533,57.786533 0 1 1 115.573,0 z"
       transform="matrix(0.95940739,0,0,0.95940739,-252.84401,-583.55116)" />
    <path
       sodipodi:type="arc"
       style="color:#000000;fill:#ffffff;fill-opacity:1;fill-rule:nonzero;stroke:none;stroke-width:8;marker:none;visibility:visible;display:inline;overflow:visible;enable-background:accumulate"
       id="path4352-6"
       sodipodi:cx="2301.4099"
       sodipodi:cy="1785.1545"
       sodipodi:rx="17.997429"
       sodipodi:ry="17.997429"
       d="m 2319.4073,1785.1545 a 17.997429,17.997429 0 1 1 -35.9948,0 17.997429,17.997429 0 1 1 35.9948,0 z"
       transform="matrix(1.2964824,0,0,1.2964824,-1014.955,-1167.3518)" />
    <path
       sodipodi:type="arc"
       style="color:#000000;fill:#013e56;fill-opacity:1;fill-rule:nonzero;stroke:none;stroke-width:8;marker:none;visibility:visible;display:inline;overflow:visible;enable-background:accumulate"
       id="path4348-29"
       sodipodi:cx="2315.9065"
       sodipodi:cy="1803.7494"
       sodipodi:rx="57.786533"
       sodipodi:ry="57.786533"
       d="m 2373.693,1803.7494 a 57.786533,57.786533 0 1 1 -115.573,0 57.786533,57.786533 0 1 1 115.573,0 z"
       transform="matrix(0.95940739,0,0,0.95940739,-683.18104,-583.55116)" />
    <path
       sodipodi:type="arc"
       style="color:#000000;fill:#ffffff;fill-opacity:1;fill-rule:nonzero;stroke:none;stroke-width:8;marker:none;visibility:visible;display:inline;overflow:visible;enable-background:accumulate"
       id="path4352-3"
       sodipodi:cx="2301.4099"
       sodipodi:cy="1785.1545"
       sodipodi:rx="17.997429"
       sodipodi:ry="17.997429"
       d="m 2319.4073,1785.1545 a 17.997429,17.997429 0 1 1 -35.9948,0 17.997429,17.997429 0 1 1 35.9948,0 z"
       transform="matrix(1.2964824,0,0,1.2964824,-1445.2921,-1167.3518)" />
    <path
       sodipodi:type="arc"
       style="color:#000000;fill:#00759e;fill-opacity:1;fill-rule:nonzero;stroke:none;stroke-width:8;marker:none;visibility:visible;display:inline;overflow:visible;enable-background:accumulate"
       id="path4348-4"
       sodipodi:cx="2315.9065"
       sodipodi:cy="1803.7494"
       sodipodi:rx="57.786533"
       sodipodi:ry="57.786533"
       d="m 2373.693,1803.7494 a 57.786533,57.786533 0 1 1 -115.573,0 57.786533,57.786533 0 1 1 115.573,0 z"
       transform="matrix(0.95940739,0,0,0.95940739,-1018.7307,-583.55116)" />
    <path
       sodipodi:type="arc"
       style="color:#000000;fill:#ffffff;fill-opacity:1;fill-rule:nonzero;stroke:none;stroke-width:8;marker:none;visibility:visible;display:inline;overflow:visible;enable-background:accumulate"
       id="path4352-7"
       sodipodi:cx="2301.4099"
       sodipodi:cy="1785.1545"
       sodipodi:rx="17.997429"
       sodipodi:ry="17.997429"
       d="m 2319.4073,1785.1545 a 17.997429,17.997429 0 1 1 -35.9948,0 17.997429,17.997429 0 1 1 35.9948,0 z"
       transform="matrix(1.2964824,0,0,1.2964824,-1780.8417,-1167.3518)" />
    <path
       sodipodi:type="arc"
       style="color:#000000;fill:#00759e;fill-opacity:1;fill-rule:nonzero;stroke:none;stroke-width:8;marker:none;visibility:visible;display:inline;overflow:visible;enable-background:accumulate"
       id="path4348-45"
       sodipodi:cx="2315.9065"
       sodipodi:cy="1803.7494"
       sodipodi:rx="57.786533"
       sodipodi:ry="57.786533"
       d="m 2373.693,1803.7494 a 57.786533,57.786533 0 1 1 -115.573,0 57.786533,57.786533 0 1 1 115.573,0 z"
       transform="matrix(0.95940739,0,0,0.95940739,-467.68328,-1134.4369)" />
    <path
       sodipodi:type="arc"
       style="color:#000000;fill:#ffffff;fill-opacity:1;fill-rule:nonzero;stroke:none;stroke-width:8;marker:none;visibility:visible;display:inline;overflow:visible;enable-background:accumulate"
       id="path4352-0"
       sodipodi:cx="2301.4099"
       sodipodi:cy="1785.1545"
       sodipodi:rx="17.997429"
       sodipodi:ry="17.997429"
       d="m 2319.4073,1785.1545 a 17.997429,17.997429 0 1 1 -35.9948,0 17.997429,17.997429 0 1 1 35.9948,0 z"
       transform="matrix(1.2964824,0,0,1.2964824,-1229.7943,-1718.2375)" />
    <path
       sodipodi:type="arc"
       style="color:#000000;fill:#00759e;fill-opacity:1;fill-rule:nonzero;stroke:none;stroke-width:8;marker:none;visibility:visible;display:inline;overflow:visible;enable-background:accumulate"
       id="path4348-1"
       sodipodi:cx="2315.9065"
       sodipodi:cy="1803.7494"
       sodipodi:rx="57.786533"
       sodipodi:ry="57.786533"
       d="m 2373.693,1803.7494 a 57.786533,57.786533 0 1 1 -115.573,0 57.786533,57.786533 0 1 1 115.573,0 z"
       transform="matrix(0.95940739,0,0,0.95940739,83.446846,-580.31323)" />
    <path
       sodipodi:type="arc"
       style="color:#000000;fill:#ffffff;fill-opacity:1;fill-rule:nonzero;stroke:none;stroke-width:8;marker:none;visibility:visible;display:inline;overflow:visible;enable-background:accumulate"
       id="path4352-06"
       sodipodi:cx="2301.4099"
       sodipodi:cy="1785.1545"
       sodipodi:rx="17.997429"
       sodipodi:ry="17.997429"
       d="m 2319.4073,1785.1545 a 17.997429,17.997429 0 1 1 -35.9948,0 17.997429,17.997429 0 1 1 35.9948,0 z"
       transform="matrix(1.2964824,0,0,1.2964824,-678.66417,-1164.1138)" />
    <path
       sodipodi:type="arc"
       style="color:#000000;fill:#3ba2db;fill-opacity:1;fill-rule:nonzero;stroke:none;stroke-width:8;marker:none;visibility:visible;display:inline;overflow:visible;enable-background:accumulate"
       id="path4348-06"
       sodipodi:cx="2315.9065"
       sodipodi:cy="1803.7494"
       sodipodi:rx="57.786533"
       sodipodi:ry="57.786533"
       d="m 2373.693,1803.7494 a 57.786533,57.786533 0 1 1 -115.573,0 57.786533,57.786533 0 1 1 115.573,0 z"
       transform="matrix(0.95940739,0,0,0.95940739,417.62138,-580.31323)" />
    <path
       sodipodi:type="arc"
       style="color:#000000;fill:#ffffff;fill-opacity:1;fill-rule:nonzero;stroke:none;stroke-width:8;marker:none;visibility:visible;display:inline;overflow:visible;enable-background:accumulate"
       id="path4352-1"
       sodipodi:cx="2301.4099"
       sodipodi:cy="1785.1545"
       sodipodi:rx="17.997429"
       sodipodi:ry="17.997429"
       d="m 2319.4073,1785.1545 a 17.997429,17.997429 0 1 1 -35.9948,0 17.997429,17.997429 0 1 1 35.9948,0 z"
       transform="matrix(1.2964824,0,0,1.2964824,-344.48964,-1164.1138)" />
    <path
       sodipodi:type="arc"
       style="color:#000000;fill:#3ba2db;fill-opacity:1;fill-rule:nonzero;stroke:none;stroke-width:8;marker:none;visibility:visible;display:inline;overflow:visible;enable-background:accumulate"
       id="path4348-5"
       sodipodi:cx="2315.9065"
       sodipodi:cy="1803.7494"
       sodipodi:rx="57.786533"
       sodipodi:ry="57.786533"
       d="m 2373.693,1803.7494 a 57.786533,57.786533 0 1 1 -115.573,0 57.786533,57.786533 0 1 1 115.573,0 z"
       transform="matrix(0.95940739,0,0,0.95940739,-467.68324,-1470.4396)" />
    <path
       sodipodi:type="arc"
       style="color:#000000;fill:#ffffff;fill-opacity:1;fill-rule:nonzero;stroke:none;stroke-width:8;marker:none;visibility:visible;display:inline;overflow:visible;enable-background:accumulate"
       id="path4352-4"
       sodipodi:cx="2301.4099"
       sodipodi:cy="1785.1545"
       sodipodi:rx="17.997429"
       sodipodi:ry="17.997429"
       d="m 2319.4073,1785.1545 a 17.997429,17.997429 0 1 1 -35.9948,0 17.997429,17.997429 0 1 1 35.9948,0 z"
       transform="matrix(1.2964824,0,0,1.2964824,-1229.7943,-2054.2402)" />
    <path
       sodipodi:type="arc"
       style="color:#000000;fill:#3ba2db;fill-opacity:1;fill-rule:nonzero;stroke:none;stroke-width:8;marker:none;visibility:visible;display:inline;overflow:visible;enable-background:accumulate"
       id="path4348-6"
       sodipodi:cx="2315.9065"
       sodipodi:cy="1803.7494"
       sodipodi:rx="57.786533"
       sodipodi:ry="57.786533"
       d="m 2373.693,1803.7494 a 57.786533,57.786533 0 1 1 -115.573,0 57.786533,57.786533 0 1 1 115.573,0 z"
       transform="matrix(0.95940739,0,0,0.95940739,-1353.9293,-583.55116)" />
    <path
       sodipodi:type="arc"
       style="color:#000000;fill:#ffffff;fill-opacity:1;fill-rule:nonzero;stroke:none;stroke-width:8;marker:none;visibility:visible;display:inline;overflow:visible;enable-background:accumulate"
       id="path4352-56"
       sodipodi:cx="2301.4099"
       sodipodi:cy="1785.1545"
       sodipodi:rx="17.997429"
       sodipodi:ry="17.997429"
       d="m 2319.4073,1785.1545 a 17.997429,17.997429 0 1 1 -35.9948,0 17.997429,17.997429 0 1 1 35.9948,0 z"
       transform="matrix(1.2964824,0,0,1.2964824,-2116.0403,-1167.3518)" />
  </g>
</svg>
